<?xml version="1.0" encoding="UTF-8"?>
<svg xmlns="http://www.w3.org/2000/svg" viewBox="0 0 512 512" width="512" height="512"><g id="filled_outline" data-name="filled outline"><circle cx="256" cy="256" r="152" style="fill:#02a437"/><path d="M256,96C167.776,96,96,167.776,96,256s71.776,160,160,160,160-71.776,160-160S344.224,96,256,96ZM388.665,312H308.692a456.593,456.593,0,0,0,3.242-48h87.84A142.988,142.988,0,0,1,388.665,312ZM256,400c-6.777,0-17.249-10.227-26.313-38.929A258.245,258.245,0,0,1,221.828,328h68.344a258.072,258.072,0,0,1-7.86,33.071C273.249,389.773,262.777,400,256,400Zm-36.585-88a438.343,438.343,0,0,1-3.345-48h79.86a438.343,438.343,0,0,1-3.345,48ZM112.226,264h87.84a456.593,456.593,0,0,0,3.242,48H123.335A142.988,142.988,0,0,1,112.226,264Zm14.834-72.06a8.109,8.109,0,0,0,.94.06h76.369a447.419,447.419,0,0,0-4.3,56h-87.84A142.956,142.956,0,0,1,127.06,191.94ZM256,112c6.777,0,17.249,10.227,26.312,38.929A243.891,243.891,0,0,1,288.666,176H223.334a244.156,244.156,0,0,1,6.353-25.071C238.751,122.227,249.223,112,256,112Zm35.479,80a428.042,428.042,0,0,1,4.451,56H216.07a427.7,427.7,0,0,1,4.451-56Zm20.455,56a447.23,447.23,0,0,0-4.3-56H384a8.109,8.109,0,0,0,.94-.06A142.956,142.956,0,0,1,399.774,248Zm63.74-72h-70.7a264.684,264.684,0,0,0-7.406-29.889c-4.087-12.941-8.8-23.452-14.049-31.461A144.332,144.332,0,0,1,375.674,176Zm-147.2-61.35c-5.243,8.009-9.959,18.523-14.045,31.461A264.684,264.684,0,0,0,207.024,176h-70.7A144.333,144.333,0,0,1,228.475,114.65ZM131.331,328H205.6a278.584,278.584,0,0,0,8.828,37.889c4.087,12.941,8.8,23.452,14.049,31.461A144.428,144.428,0,0,1,131.331,328Zm152.19,69.35c5.245-8.009,9.962-18.52,14.049-31.461A278.584,278.584,0,0,0,306.4,328h74.271A144.428,144.428,0,0,1,283.521,397.35Z" style="fill:#027e2a"/><path d="M184,94.623a8,8,0,0,1-3.136-15.363A190.765,190.765,0,0,1,256,64a8,8,0,0,1,0,16,174.869,174.869,0,0,0-68.867,13.981A7.961,7.961,0,0,1,184,94.623Z" style="fill:#65d3e0"/><path d="M256,448a8,8,0,0,1,0-16,174.339,174.339,0,0,0,76.517-17.457,8,8,0,1,1,6.966,14.4A190.2,190.2,0,0,1,256,448Z" style="fill:#65d3e0"/><path d="M471.86,272c-.1,0-.2,0-.3,0a8,8,0,0,1-7.7-8.286c.093-2.555.14-5.148.14-7.709a205.894,205.894,0,0,0-21.617-92.44,8,8,0,0,1,14.328-7.12A221.748,221.748,0,0,1,480,256c0,2.754-.051,5.543-.151,8.291A8,8,0,0,1,471.86,272Z" style="fill:#65d3e0"/><path d="M55.3,344a8,8,0,0,1-7.433-5.038A222.876,222.876,0,0,1,32,256a8,8,0,0,1,16,0,206.96,206.96,0,0,0,14.73,77.036A8,8,0,0,1,55.3,344Z" style="fill:#65d3e0"/><circle cx="120" cy="120" r="72" style="fill:#fbb540"/><path d="M120,160.012a25.385,25.385,0,0,1-16.517-5.948A20.855,20.855,0,0,1,96,138.3a8,8,0,0,1,16,0,4.848,4.848,0,0,0,1.89,3.61,9.975,9.975,0,0,0,12.22,0A4.852,4.852,0,0,0,128,138.3v-1.175a5.235,5.235,0,0,0-2.723-4.229l-19.2-12.33A21.165,21.165,0,0,1,96,102.875V101.7a20.855,20.855,0,0,1,7.483-15.764,25.906,25.906,0,0,1,33.034,0A20.855,20.855,0,0,1,144,101.7a8,8,0,0,1-16,0,4.848,4.848,0,0,0-1.89-3.61,9.972,9.972,0,0,0-12.22,0A4.852,4.852,0,0,0,112,101.7v1.175a5.235,5.235,0,0,0,2.723,4.229l19.2,12.33A21.165,21.165,0,0,1,144,137.125V138.3a20.855,20.855,0,0,1-7.483,15.764A25.39,25.39,0,0,1,120,160.012Z" style="fill:#d18d28"/><path d="M120,176a8,8,0,0,1-8-8V152a8,8,0,0,1,16,0v16A8,8,0,0,1,120,176Z" style="fill:#d18d28"/><path d="M120,96a8,8,0,0,1-8-8V72a8,8,0,0,1,16,0V88A8,8,0,0,1,120,96Z" style="fill:#d18d28"/><circle cx="104" cy="384" r="72" style="fill:#fbb540"/><path d="M141.657,394.343a8,8,0,0,0-11.314,0l-7.885,7.885a6.015,6.015,0,0,1-7.57.75l-4.9-3.269A21.818,21.818,0,0,0,104,396.938V392h8a8,8,0,0,0,0-16h-8V360a8,8,0,0,1,16,0,8,8,0,0,0,16,0,24,24,0,0,0-48,0v16H80a8,8,0,0,0,0,16h8v6.335a21.829,21.829,0,0,0-5.772,4.123l-7.885,7.885a8,8,0,0,0,11.314,11.314l7.885-7.885a6.015,6.015,0,0,1,7.57-.75l4.9,3.269a22.059,22.059,0,0,0,27.759-2.749l7.885-7.885A8,8,0,0,0,141.657,394.343Z" style="fill:#d18d28"/><circle cx="400" cy="384" r="72" style="fill:#fbb540"/><path d="M407,416a23.993,23.993,0,0,1-20.158-11H397a8,8,0,0,0,0-16H383V379h14a8,8,0,0,0,0-16H386.842A23.993,23.993,0,0,1,407,352a8,8,0,0,0,0-16,40.062,40.062,0,0,0-37.82,27H361a8,8,0,0,0,0,16h6v10h-6a8,8,0,0,0,0,16h8.18A40.062,40.062,0,0,0,407,432a8,8,0,0,0,0-16Z" style="fill:#d18d28"/><circle cx="392" cy="120" r="72" style="fill:#fbb540"/><path d="M429.657,82.343a8,8,0,0,0-11.314,0L392,108.686,365.657,82.343a8,8,0,0,0-11.314,11.314L372.687,112H368a8,8,0,0,0,0,16h16v8H368a8,8,0,0,0,0,16h16v8a8,8,0,0,0,16,0v-8h16a8,8,0,0,0,0-16H400v-8h16a8,8,0,0,0,0-16h-4.687l18.344-18.343A8,8,0,0,0,429.657,82.343Z" style="fill:#d18d28"/><path d="M127.7,168v-9.246a24.482,24.482,0,0,0,8.517-4.69A20.857,20.857,0,0,0,143.7,138.3v-1.175a21.165,21.165,0,0,0-10.077-17.691l-19.2-12.33a5.235,5.235,0,0,1-2.723-4.229V101.7a4.854,4.854,0,0,1,1.889-3.611,9.446,9.446,0,0,1,6.1-2.09h.026a9.441,9.441,0,0,1,6.1,2.09,4.852,4.852,0,0,1,1.89,3.611,8,8,0,0,0,16,0,20.857,20.857,0,0,0-7.483-15.764,24.482,24.482,0,0,0-8.517-4.69V72a8,8,0,0,0-16,0v9.247a24.487,24.487,0,0,0-8.517,4.689A20.854,20.854,0,0,0,95.7,101.7v1.175a21.164,21.164,0,0,0,10.077,17.691l19.2,12.33a5.235,5.235,0,0,1,2.723,4.229V138.3a4.854,4.854,0,0,1-1.889,3.611A9.45,9.45,0,0,1,119.7,144h-.014a9.438,9.438,0,0,1-6.1-2.089,4.852,4.852,0,0,1-1.89-3.611,8,8,0,0,0-16,0,20.854,20.854,0,0,0,7.483,15.764,24.482,24.482,0,0,0,8.517,4.69V168a8,8,0,0,0,16,0Z"/><path d="M130.038,394.343l-7.885,7.885a6.015,6.015,0,0,1-7.57.749l-4.9-3.267a21.805,21.805,0,0,0-5.987-2.772V392h8a8,8,0,0,0,0-16h-8V360a8,8,0,0,1,16,0,8,8,0,0,0,16,0,24,24,0,0,0-48,0v16h-8a8,8,0,0,0,0,16h8v6.335a21.829,21.829,0,0,0-5.772,4.123l-7.885,7.885a8,8,0,0,0,11.314,11.314l7.885-7.885a6.011,6.011,0,0,1,7.57-.749l4.9,3.267a22.059,22.059,0,0,0,27.759-2.748l7.885-7.885a8,8,0,0,0-11.314-11.314Z"/><path d="M368.875,363H360.7a8,8,0,1,0,0,16h6v10h-6a8,8,0,1,0,0,16h8.18a40.062,40.062,0,0,0,37.82,27,8,8,0,0,0,0-16,24,24,0,0,1-20.159-11H396.7a8,8,0,0,0,0-16h-14V379h14a8,8,0,0,0,0-16H386.536A24,24,0,0,1,406.7,352a8,8,0,0,0,0-16A40.062,40.062,0,0,0,368.875,363Z"/><path d="M418.038,82.343,391.7,108.686,365.352,82.343a8,8,0,0,0-11.314,11.314L372.381,112H367.7a8,8,0,0,0,0,16h16v8h-16a8,8,0,0,0,0,16h16v8a8,8,0,0,0,16,0v-8h16a8,8,0,0,0,0-16h-16v-8h16a8,8,0,0,0,0-16h-4.687l18.344-18.343a8,8,0,0,0-11.314-11.314Z"/><path d="M471.259,272c.1,0,.2,0,.3,0a8,8,0,0,0,7.989-7.709c.1-2.739.151-5.528.151-8.291a221.94,221.94,0,0,0-20.354-93.371,79.976,79.976,0,1,0-146.487-56.114,160.547,160.547,0,0,0-114.317.009,79.31,79.31,0,0,0-4.293-15.493A174.98,174.98,0,0,1,255.7,80a8,8,0,0,0,0-16,190.847,190.847,0,0,0-68.782,12.7,79.977,79.977,0,1,0-80.7,122.137,160.628,160.628,0,0,0-3.18,105.176,79.527,79.527,0,0,0-45.671,14.827A207.7,207.7,0,0,1,47.7,256a8,8,0,0,0-16,0,223.4,223.4,0,0,0,12.666,74.4A79.976,79.976,0,1,0,182.4,398.246a160.2,160.2,0,0,0,139.309,3.523,79.34,79.34,0,0,0,5.146,15.245A174.322,174.322,0,0,1,255.7,432a8,8,0,1,0,0,16,190.177,190.177,0,0,0,79.261-17.083,79.978,79.978,0,1,0,73.258-126.458,160.576,160.576,0,0,0-3.043-105.617,79.86,79.86,0,0,0,42.883-22.125A206.176,206.176,0,0,1,463.7,256c0,2.569-.047,5.163-.14,7.709A8,8,0,0,0,471.259,272Zm-82.9-72.08A142.3,142.3,0,0,1,399.478,248H311.629a447.225,447.225,0,0,0-4.3-56h49.524A79.432,79.432,0,0,0,388.357,199.915ZM364.849,312H308.387a456.593,456.593,0,0,0,3.242-48h87.84a143.051,143.051,0,0,1-8.123,40.437A79.349,79.349,0,0,0,364.849,312ZM255.7,400c-6.778,0-17.249-10.227-26.313-38.929A258.245,258.245,0,0,1,221.523,328h68.344a258.24,258.24,0,0,1-7.86,33.071C272.943,389.773,262.472,400,255.7,400Zm-94.941-72H205.3a278.584,278.584,0,0,0,8.828,37.889c4.083,12.928,8.793,23.442,14.031,31.448a143.322,143.322,0,0,1-44.546-16.673A79.724,79.724,0,0,0,160.754,328Zm-6.213-136h49.523a447.23,447.23,0,0,0-4.3,56H111.914a142.454,142.454,0,0,1,11.113-48.085A79.439,79.439,0,0,0,154.541,192Zm45.069-68.662a142.114,142.114,0,0,1,28.581-8.729c-5.252,8.013-9.974,18.545-14.066,31.5A264.684,264.684,0,0,0,206.719,176H176.754A79.725,79.725,0,0,0,199.61,123.338Zm82.4,27.591A243.891,243.891,0,0,1,288.361,176H223.029a244.156,244.156,0,0,1,6.353-25.071C238.446,122.227,248.917,112,255.7,112S272.943,122.227,282.007,150.929ZM291.174,192a428.042,428.042,0,0,1,4.451,56h-79.86a427.874,427.874,0,0,1,4.45-56ZM120.547,305.8a143.055,143.055,0,0,1-8.626-41.8h87.84A456.593,456.593,0,0,0,203,312H138.7c-.048,0-.093.006-.14.007A79.373,79.373,0,0,0,120.547,305.8ZM219.11,312a438.1,438.1,0,0,1-3.345-48h79.86a438.591,438.591,0,0,1-3.345,48Zm85.561-136a264.9,264.9,0,0,0-7.406-29.889c-4.09-12.95-8.809-23.478-14.058-31.489a142.36,142.36,0,0,1,28.573,8.716A79.725,79.725,0,0,0,334.636,176ZM55.7,120a64,64,0,1,1,64,64A64.072,64.072,0,0,1,55.7,120Zm48,328a64,64,0,1,1,64-64A64.072,64.072,0,0,1,103.7,448ZM283.2,397.388c5.252-8.012,9.973-18.543,14.065-31.5A278.584,278.584,0,0,0,306.093,328h36.543A79.726,79.726,0,0,0,319.7,384c0,.337.021.668.025,1A141.935,141.935,0,0,1,283.2,397.388ZM463.7,384a64,64,0,1,1-64-64A64.073,64.073,0,0,1,463.7,384Zm-72-200a64,64,0,1,1,64-64A64.072,64.072,0,0,1,391.7,184Z"/></g></svg>
